#!OML:ASF E:\VariousWalksJay\Project 1\Capture day 1\Session 1\Actor2.ASF
:FULLY-SPECIFIED
:DEGREES
783
root -9.14611 13.5976 31.852 9.8087 -40.1198 -2.3855
lowerback 46.056 -2.76965 5.52014
upperback 17.8926 -2.44941 -2.10301
thorax -1.21951 -1.18438 -4.08726
lowerneck 6.11406 -0.118745 7.58562
upperneck -26.7189 0.19551 -2.19871
head -9.39865 -0.595843 -2.05463
rclavicle -1.07344e-014 3.88624e-014
rhumerus -6.22483 26.8956 -74.8288
rradius 112.758
rwrist 2.13618
rhand -31.7507 -11.5717
rfingers 7.12502
rthumb -5.00802 -41.4926
lclavicle -1.07344e-014 3.88624e-014
lhumerus 65.5605 -5.61651 36.4863
lradius 81.7997
lwrist 54.4287
lhand -31.8388 13.9998
lfingers 7.12502
lthumb -5.09311 43.9186
rfemur -56.0246 8.16892 28.3054
rtibia 88.3375
rfoot -37.388 -27.3872
rtoes -6.94693
lfemur -89.4768 5.64793 -15.9744
ltibia 76.4645
lfoot -17.1782 6.33954
ltoes -22.039
784
root -9.1773 13.5467 31.9189 9.92564 -40.3664 -2.48684
lowerback 46.0346 -2.66743 5.52419
upperback 17.9617 -2.34373 -2.08648
thorax -1.12584 -1.1353 -4.11447
lowerneck 6.21181 -0.12437 7.63065
upperneck -26.8508 0.171141 -2.32273
head -9.46438 -0.602328 -2.10518
rclavicle -6.75868e-015 1.2424e-014
rhumerus -4.88364 27.1266 -74.0262
rradius 113.025
rwrist 1.68063
rhand -31.5727 -12.0437
rfingers 7.12502
rthumb -4.83616 -41.9685
lclavicle -6.75868e-015 1.2424e-014
lhumerus 65.9496 -4.85381 36.9575
lradius 81.4375
lwrist 54.6144
lhand -31.8097 14.0481
lfingers 7.12502
lthumb -5.06503 43.9676
rfemur -56.049 8.18133 28.4032
rtibia 88.925
rfoot -37.8274 -27.4266
rtoes -7.63375
lfemur -88.5746 5.64861 -15.5216
ltibia 72.6642
lfoot -17.2713 6.88578
ltoes -22.155
785
root -9.20998 13.5006 31.9882 10.0608 -40.6139 -2.59956
lowerback 45.9941 -2.56571 5.52135
upperback 18.0222 -2.24127 -2.06772
thorax -1.03772 -1.08848 -4.13463
lowerneck 6.29421 -0.126235 7.66227
upperneck -26.9483 0.152216 -2.43319
head -9.51483 -0.60516 -2.14891
rclavicle 2.5842e-014 -4.41302e-014
rhumerus -3.62498 27.3546 -73.2421
rradius 113.257
rwrist 1.3165
rhand -31.4394 -12.4931
rfingers 7.12502
rthumb -4.70744 -42.4208
lclavicle 2.5842e-014 -4.41302e-014
lhumerus 66.2897 -4.1489 37.4056
lradius 81.0899
lwrist 54.7666
lhand -31.7648 14.0829
lfingers 7.12502
lthumb -5.02162 44.0034
rfemur -56.0388 8.17574 28.5037
rtibia 89.461
rfoot -38.2606 -27.4387
rtoes -8.30336
lfemur -87.5952 5.64512 -15.0185
ltibia 68.9033
lfoot -17.2822 7.32991
ltoes -22.2592
786
root -9.24433 13.4587 32.0605 10.2121 -40.8524 -2.72943
lowerback 45.9336 -2.47198 5.52766
upperback 18.0773 -2.14454 -2.04797
thorax -0.951542 -1.0439 -4.15626
lowerneck 6.36193 -0.129113 7.6833
upperneck -27.0141 0.134382 -2.52214
head -9.55135 -0.607736 -2.18304
rclavicle -3.18055e-014 1.00386e-014
rhumerus -2.45629 27.5689 -72.487
rradius 113.458
rwrist 1.05159
rhand -31.3453 -12.8717
rfingers 7.12502
rthumb -4.61654 -42.8014
lclavicle -3.18055e-014 1.00386e-014
lhumerus 66.5826 -3.51399 37.8263
lradius 80.7615
lwrist 54.8751
lhand -31.6931 14.122
lfingers 7.12502
lthumb -4.95236 44.0441
rfemur -55.9891 8.14874 28.6123
rtibia 89.9501
rfoot -38.6951 -27.4227
rtoes -8.94785
lfemur -86.5525 5.62763 -14.4697
ltibia 65.2267
lfoot -17.3036 7.69909
ltoes -22.4066
787
root -9.28046 13.421 32.1364 10.3703 -41.0835 -2.87022
lowerback 45.8553 -2.38736 5.53742
upperback 18.129 -2.05733 -2.02892
thorax -0.865804 -1.00361 -4.17687
lowerneck 6.41223 -0.128089 7.69567
upperneck -27.0519 0.12169 -2.60177
head -9.57428 -0.607149 -2.21256
rclavicle -1.82882e-014 -2.21645e-014
rhumerus -1.36755 27.7747 -71.7653
rradius 113.617
rwrist 0.878173
rhand -31.2769 -13.2448
rfingers 7.12502
rthumb -4.55049 -43.1759
lclavicle -1.82882e-014 -2.21645e-014
lhumerus 66.8219 -2.94557 38.2124
lradius 80.4537
lwrist 54.9426
lhand -31.6061 14.1568
lfingers 7.12502
lthumb -4.86837 44.0809
rfemur -55.8926 8.09637 28.7239
rtibia 90.3929
rfoot -39.117 -27.3902
rtoes -9.6158
lfemur -85.4593 5.59714 -13.8919
ltibia 61.6699
lfoot -17.3073 8.00433
ltoes -22.5784
788
root -9.31886 13.3872 32.2157 10.5343 -41.3202 -3.02265
lowerback 45.7691 -2.30336 5.53953
upperback 18.1735 -1.97408 -2.01544
thorax -0.787157 -0.965558 -4.19793
lowerneck 6.44 -0.121862 7.71952
upperneck -27.0539 0.116537 -2.6819
head -9.57974 -0.603041 -2.24444
rclavicle 1.78906e-014 -5.71506e-014
rhumerus -0.371592 27.9742 -71.0961
rradius 113.737
rwrist 0.766637
rhand -31.218 -13.5864
rfingers 7.12502
rthumb -4.49367 -43.5187
lclavicle 1.78906e-014 -5.71506e-014
lhumerus 67.0062 -2.4424 38.5389
lradius 80.1751
lwrist 54.9803
lhand -31.5255 14.1971
lfingers 7.12502
lthumb -4.79052 44.1229
rfemur -55.7499 8.03872 28.8381
rtibia 90.7932
rfoot -39.5225 -27.3505
rtoes -10.3169
lfemur -84.335 5.57648 -13.3019
ltibia 58.2747
lfoot -17.2764 8.22138
ltoes -22.6536
